<?xml version="1.0" encoding="UTF-8"?>
<svg xmlns="http://www.w3.org/2000/svg" xmlns:xlink="http://www.w3.org/1999/xlink" width="256pt" height="302pt" viewBox="0 0 256 302" version="1.1">
<g id="surface1">
<path style="fill-rule:evenodd;fill:rgb(100%,81.176471%,67.058824%);fill-opacity:1;stroke-width:4.327397;stroke-linecap:butt;stroke-linejoin:miter;stroke:rgb(0%,0%,0%);stroke-opacity:1;stroke-miterlimit:4;" d="M 314.594604 51.491707 C 307.83197 61.825836 301.069336 72.159964 294.313843 82.501234 C 326.363159 119.702668 358.412476 156.904101 390.461792 194.098393 C 394.974976 175.636941 398.27417 195.776707 401.958984 203.582652 C 411.842285 225.922081 413.377625 250.803977 416.455444 274.707451 C 422.289734 319.936224 420.368774 346.403591 416.219788 371.085517 C 402.773071 451.058958 355.084717 497.737509 309.531555 524.611956 C 293.949646 533.810544 278.953308 540.238129 256.958679 543.237669 C 234.292786 546.330052 212.091064 545.101669 189.332336 540.673777 C 170.551208 537.010053 151.655823 530.839572 134.310059 522.890792 C 106.645386 510.214166 83.808105 488.274676 65.94104 464.199799 C 48.645264 440.910516 37.740784 413.121923 29.457092 385.276197 C 14.389343 334.626827 8.01947 280.692247 20.037964 228.585958 C 27.528992 196.105228 38.333496 163.945878 53.101318 134.286144 C 68.783203 102.812403 90.813538 74.309634 117.485596 50.677547 C 133.503113 36.479725 150.913147 23.403161 170.515503 15.511515 C 184.890564 9.719547 200.115417 8.412604 215.825867 9.44816 C 231.364929 10.476573 246.18988 12.212021 260.993408 17.475499 C 281.131348 24.638686 300.112427 35.844109 314.594604 51.491707 Z M 314.594604 51.491707 " transform="matrix(0.547009,0,0,0.546959,0,0.258026)"/>
<path style="fill-rule:evenodd;fill:rgb(95.294118%,56.862745%,1.960784%);fill-opacity:1;stroke-width:1.041419;stroke-linecap:butt;stroke-linejoin:miter;stroke:rgb(0%,0%,0%);stroke-opacity:1;stroke-miterlimit:4;" d="M 165.409607 186.371008 L 154.248047 158.039641 L 166.266541 152.03342 L 190.303528 148.598233 L 234.949768 93.656665 L 259.843689 97.091852 L 276.153992 88.507455 L 288.172485 85.929279 L 269.284241 127.137241 L 232.371826 131.42944 Z M 165.409607 186.371008 " transform="matrix(0.547009,0,0,0.546959,0,0.258026)"/>
<path style="fill-rule:evenodd;fill:rgb(100%,81.176471%,67.058824%);fill-opacity:1;stroke-width:1.041419;stroke-linecap:butt;stroke-linejoin:miter;stroke:rgb(0%,0%,0%);stroke-opacity:1;stroke-miterlimit:4;" d="M 325.941833 71.338661 L 345.687012 96.234841 L 350.842896 104.819238 L 313.066406 91.942642 L 317.358215 79.923058 Z M 325.941833 71.338661 " transform="matrix(0.547009,0,0,0.546959,0,0.258026)"/>
<path style="fill-rule:evenodd;fill:rgb(95.294118%,60.392157%,1.960784%);fill-opacity:1;stroke-width:1.041419;stroke-linecap:butt;stroke-linejoin:miter;stroke:rgb(0%,0%,0%);stroke-opacity:1;stroke-miterlimit:4;" d="M 311.352539 90.221478 L 330.233643 100.527039 L 349.978821 106.53326 L 323.371033 121.13102 L 303.625854 119.409856 L 301.904846 105.676249 Z M 311.352539 90.221478 " transform="matrix(0.547009,0,0,0.546959,0,0.258026)"/>
<path style="fill-rule:evenodd;fill:rgb(67.058824%,60.392157%,49.411765%);fill-opacity:1;stroke-width:1.041419;stroke-linecap:butt;stroke-linejoin:miter;stroke:rgb(0%,0%,0%);stroke-opacity:1;stroke-miterlimit:4;" d="M 166.266541 188.08503 L 180.006042 210.410176 L 166.266541 245.604775 L 198.894287 251.618137 L 205.756897 258.48137 L 226.359009 290.247923 L 291.607361 255.910336 L 311.031189 261.273798 L 331.954651 255.046183 L 317.358215 239.598553 L 319.936157 235.306355 L 326.805908 231.014157 L 330.233643 242.169587 L 336.24646 255.910336 L 352.556763 275.650164 L 356.848572 273.07913 L 357.705505 260.202534 L 372.866089 257.531516 L 378.214783 253.375011 L 391.611511 251.746689 L 395.053528 234.877849 L 385.177368 194.098393 L 385.177368 176.9296 L 400.630737 174.351424 L 414.370239 184.656985 L 434.108276 189.806195 L 441.834961 188.08503 L 418.662048 158.896653 L 404.415527 144.313177 L 396.338928 139.156825 L 380.885559 128.851264 L 349.121887 130.572428 L 324.227966 136.578649 L 302.768921 146.884211 L 289.886353 145.163046 L 273.57605 137.435661 L 268.427307 129.715417 L 234.949768 128.851264 Z M 166.266541 188.08503 " transform="matrix(0.547009,0,0,0.546959,0,0.258026)"/>
<path style="fill-rule:evenodd;fill:rgb(100%,100%,100%);fill-opacity:1;stroke-width:1.041419;stroke-linecap:butt;stroke-linejoin:miter;stroke:rgb(0%,0%,0%);stroke-opacity:1;stroke-miterlimit:4;" d="M 326.805908 230.150003 L 331.097717 241.312576 L 328.519775 248.18295 L 315.644348 240.455565 L 319.079224 234.442202 Z M 326.805908 230.150003 " transform="matrix(0.547009,0,0,0.546959,0,0.258026)"/>
<path style="fill-rule:evenodd;fill:rgb(100%,100%,100%);fill-opacity:1;stroke-width:1.041419;stroke-linecap:butt;stroke-linejoin:miter;stroke:rgb(0%,0%,0%);stroke-opacity:1;stroke-miterlimit:4;" d="M 346.551086 183.792832 L 360.283447 171.78039 L 368.010132 170.916237 L 370.588074 175.208435 L 358.56958 188.08503 L 351.699829 190.663206 Z M 346.551086 183.792832 " transform="matrix(0.547009,0,0,0.546959,0,0.258026)"/>
<path style="fill-rule:evenodd;fill:rgb(100%,100%,100%);fill-opacity:1;stroke-width:1.041419;stroke-linecap:butt;stroke-linejoin:miter;stroke:rgb(0%,0%,0%);stroke-opacity:1;stroke-miterlimit:4;" d="M 371.39502 124.259111 L 329.376709 134.864627 L 301.904846 146.020057 L 277.867859 139.156825 L 269.284241 128.851264 L 291.607361 78.201894 L 312.516541 52.305868 L 326.220337 46.87813 L 341.395203 49.877669 L 357.119934 72.952699 L 373.601624 83.98672 L 371.702087 87.329065 L 347.40802 79.066047 L 325.941833 69.617497 L 305.339722 101.384051 L 301.047913 112.546623 L 304.482788 122.845043 L 360.283447 113.403634 L 366.239136 118.352875 Z M 371.39502 124.259111 " transform="matrix(0.547009,0,0,0.546959,0,0.258026)"/>
<path style="fill-rule:evenodd;fill:rgb(100%,100%,100%);fill-opacity:1;stroke-width:1.041419;stroke-linecap:butt;stroke-linejoin:miter;stroke:rgb(0%,0%,0%);stroke-opacity:1;stroke-miterlimit:4;" d="M 387.75531 130.572428 L 397.588623 143.163353 L 403.79425 143.334755 L 426.738647 168.852268 L 432.444397 175.772634 L 442.699036 169.202214 L 454.717529 142.592012 L 461.380188 121.430974 L 462.29425 103.705123 L 456.788452 97.091852 L 437.543152 97.091852 L 422.953857 100.527039 C 422.953857 100.527039 410.935364 106.53326 414.370239 106.53326 C 417.797974 106.53326 434.108276 111.68247 434.108276 111.68247 L 440.978027 116.83168 L 442.699036 124.559065 L 433.251343 143.449023 L 428.959534 147.741222 L 409.214355 134.864627 L 403.208679 130.572428 L 397.195862 129.715417 Z M 387.75531 130.572428 " transform="matrix(0.547009,0,0,0.546959,0,0.258026)"/>
<path style="fill-rule:evenodd;fill:rgb(100%,100%,100%);fill-opacity:1;stroke-width:1.041419;stroke-linecap:butt;stroke-linejoin:miter;stroke:rgb(61.960784%,0%,0%);stroke-opacity:1;stroke-miterlimit:4;" d="M 379.73584 230.935597 C 379.471619 228.964471 366.231995 230.935597 366.231995 230.935597 C 366.231995 230.935597 363.918274 238.827243 367.288879 238.827243 C 370.666626 238.827243 380.000061 232.913865 379.73584 230.935597 Z M 379.73584 230.935597 " transform="matrix(0.547009,0,0,0.546959,0,0.258026)"/>
<path style=" stroke:none;fill-rule:nonzero;fill:rgb(0%,0%,0%);fill-opacity:1;" d="M 217.28125 100.636719 C 218.335938 98.953125 220.914062 99.164062 225.125 101.769531 C 228.554688 103.796875 233.078125 104.214844 237.921875 104.546875 C 245.855469 105.089844 245.21875 103.910156 241.496094 100.160156 L 237.011719 96.136719 C 237.011719 96.136719 238.660156 97.089844 241.398438 94.558594 C 245.066406 91.171875 252.097656 75.582031 253.347656 64.355469 C 254.75 52.976562 252.878906 51.261719 240.71875 52.664062 C 235.726562 53.289062 229.71875 54.753906 227.226562 56.3125 C 227.226562 56.3125 223.664062 58.09375 224.210938 59.109375 C 224.753906 60.121094 229.492188 60.613281 229.492188 60.613281 C 238.378906 62.019531 240.8125 64.957031 240.8125 68.230469 C 240.8125 71.660156 236.195312 80.101562 234.011719 80.101562 C 233.234375 80.101562 230.425781 77.917969 227.777344 75.425781 C 222.476562 70.28125 219.625 69.605469 214.496094 71.128906 C 211.613281 70.339844 207.433594 69.925781 204.054688 67.984375 C 203.230469 67.511719 203.753906 66.839844 202.117188 64.785156 C 199.15625 61.066406 196.90625 61.394531 193.789062 62.175781 C 189.890625 63.109375 189.734375 63.109375 192.699219 60.925781 C 195.660156 58.746094 195.503906 58.433594 188.957031 49.859375 L 182.40625 40.972656 L 190.203125 44.871094 C 198.152344 48.921875 205.015625 50.015625 206.574219 47.519531 C 207.195312 46.742188 205.015625 44.714844 201.738281 43.15625 C 198.621094 41.597656 194.878906 38.011719 193.476562 35.359375 C 191.917969 32.554688 189.890625 29.28125 188.957031 28.03125 C 186.617188 25.382812 178.457031 23.957031 174.070312 25.613281 C 169.597656 27.304688 166.828125 31.851562 163.238281 36.550781 C 160.210938 40.519531 158.523438 43.515625 157.105469 45.925781 C 154.191406 45.234375 149.199219 47.363281 147.171875 49.234375 C 143.742188 52.351562 142.960938 52.507812 136.257812 50.792969 C 129.554688 48.921875 128.773438 49.078125 125.1875 52.351562 C 123.164062 54.378906 117.550781 61.394531 112.714844 67.941406 C 108.039062 74.644531 103.671875 80.101562 103.207031 80.257812 C 102.738281 80.257812 99.464844 80.570312 96.035156 80.882812 C 92.605469 81.191406 87.925781 82.128906 85.589844 83.0625 C 81.847656 84.46875 81.535156 85.089844 82.625 89.144531 C 83.40625 91.480469 86.835938 98.652344 90.421875 104.890625 L 96.8125 116.113281 L 92.917969 125.46875 C 90.734375 130.613281 89.332031 135.445312 89.796875 136.066406 C 90.265625 136.847656 94.785156 137.9375 99.933594 138.5625 L 109.285156 139.652344 L 116.457031 150.410156 C 123.164062 160.542969 124.359375 161.109375 126.75 159.917969 C 127.550781 159.519531 131.425781 156.800781 136.570312 154.308594 C 141.714844 151.65625 148.730469 147.761719 152.160156 145.421875 C 157.015625 142.21875 161.929688 141.128906 164.53125 142.121094 C 166.109375 142.71875 166.839844 144.082031 166.191406 146.199219 C 164.832031 150.574219 164.894531 153.296875 165.503906 156.136719 C 166.566406 157.269531 167.9375 157.789062 169.933594 159.140625 C 176.816406 163.367188 179.445312 163.660156 179.601562 159.140625 L 179.601562 155.710938 L 181.316406 159.296875 C 183.8125 164.441406 187.863281 163.039062 188.488281 156.644531 C 188.957031 152.90625 188.019531 150.410156 185.527344 147.761719 C 183.65625 145.734375 182.679688 143.078125 183.460938 143.078125 C 185.019531 143.078125 190.359375 150.253906 190.359375 152.125 C 190.359375 152.75 191.292969 153.371094 192.542969 153.371094 C 194.878906 153.371094 196.59375 150.097656 196.59375 145.578125 C 196.59375 143.855469 201.246094 142.882812 205.589844 141.34375 C 206.746094 140.933594 206.738281 140.351562 207.847656 139.59375 C 209.941406 140.035156 209.253906 140.0625 210.816406 139.953125 C 213.140625 139.785156 214.175781 139.132812 214.835938 138.09375 C 218.109375 132.792969 218.578125 126.089844 216.082031 120.167969 C 214.835938 117.046875 213.746094 110.578125 213.902344 107.773438 C 213.902344 107.773438 214.050781 105.917969 214.734375 104.085938 M 196.59375 124.6875 C 196.59375 121.570312 195.972656 121.570312 190.359375 124.53125 C 187.707031 125.933594 185.679688 128.117188 185.679688 129.519531 C 185.679688 133.105469 190.203125 137.78125 193.632812 137.78125 C 195.191406 137.78125 202.695312 139.1875 204.738281 139.207031 C 204.695312 139.804688 203.832031 140.324219 203.261719 140.507812 C 200.902344 141.261719 197.042969 140.839844 195.660156 140.589844 C 193.164062 140.277344 192.851562 141.054688 193.007812 145.578125 C 193.320312 148.539062 193.007812 149.941406 192.386719 148.695312 C 191.917969 147.449219 189.734375 144.640625 187.398438 142.460938 C 184.902344 140.121094 183.1875 136.378906 182.875 133.105469 C 182.09375 125.777344 178.976562 120.167969 172.742188 114.867188 C 166.191406 109.410156 163.699219 105.042969 164.945312 100.679688 C 165.570312 98.183594 166.972656 97.25 169.933594 97.25 C 175.234375 97.09375 185.214844 92.574219 191.605469 87.273438 C 200.023438 79.945312 197.21875 79.632812 187.242188 86.648438 C 178.976562 92.417969 176.640625 93.351562 167.285156 93.820312 L 156.839844 94.601562 L 161.984375 89.300781 C 164.632812 86.492188 166.972656 83.6875 166.972656 83.0625 C 166.972656 79.789062 181.316406 73.710938 192.074219 72.464844 C 207.351562 70.75 208.132812 70.902344 209.066406 76.046875 C 210.160156 81.972656 213.589844 83.375 212.652344 77.453125 C 212.03125 73.242188 212.03125 73.242188 214.367188 76.046875 C 215.773438 77.761719 216.863281 80.882812 216.863281 83.0625 C 216.863281 85.246094 217.332031 88.675781 217.796875 90.546875 C 218.578125 93.195312 217.796875 93.976562 213.746094 94.910156 L 208.601562 96.003906 L 209.691406 105.199219 C 210.160156 110.1875 211.71875 116.894531 212.964844 120.167969 C 215.304688 125.621094 214.835938 135.289062 212.1875 137.003906 C 211.5625 137.472656 207.664062 137.316406 203.765625 136.847656 C 197.375 135.910156 196.59375 135.445312 196.59375 131.703125 M 184.902344 28.03125 C 186.304688 28.65625 188.800781 31.773438 190.359375 35.046875 C 192.074219 38.320312 195.035156 42.0625 196.90625 43.3125 C 198.820312 44.667969 203.78125 46.605469 203.496094 46.871094 C 202.898438 47.4375 193.878906 44.609375 188.175781 41.441406 C 183.8125 38.945312 179.289062 37.230469 178.199219 37.699219 C 176.949219 38.011719 173.363281 42.53125 169.933594 47.832031 C 163.074219 58.433594 161.828125 66.695312 166.816406 68.410156 C 169.777344 69.34375 191.757812 64.144531 195.347656 63.578125 C 197.945312 63.167969 201.273438 65.757812 201.273438 67.628906 C 201.273438 68.253906 196.59375 69.1875 190.980469 69.65625 C 184.277344 70.28125 178.199219 71.996094 173.675781 74.644531 C 165.570312 79.167969 160.890625 79.476562 154.5 76.203125 C 148.109375 72.929688 148.417969 69.5 157.617188 51.105469 C 167.753906 30.371094 174.925781 24.292969 184.902344 28.03125 Z M 184.121094 46.894531 C 190.828125 57.03125 190.828125 56.5625 186.148438 55.316406 C 179.289062 53.289062 173.914062 50.113281 172.621094 49.257812 C 173.738281 46.804688 176.484375 41.128906 178.355469 41.128906 C 179.445312 41.128906 181.941406 43.777344 184.121094 46.894531 Z M 154.5 49.546875 C 154.5 49.859375 152.785156 53.910156 150.601562 58.746094 C 147.015625 66.382812 146.082031 67.320312 140.78125 68.253906 C 137.660156 68.722656 132.984375 69.1875 130.335938 69.1875 C 126.59375 69.1875 123.007812 71.683594 113.183594 81.347656 C 106.324219 88.050781 98.527344 95.066406 95.878906 96.9375 L 91.046875 100.210938 L 88.238281 93.976562 C 84.808594 86.335938 85.746094 85.089844 96.503906 84.15625 C 105.390625 83.375 106.324219 82.753906 113.496094 72.308594 C 116.144531 68.410156 120.980469 62.175781 124.410156 58.433594 C 129.710938 52.351562 130.800781 51.730469 133.765625 53.445312 C 138.753906 56.09375 144.367188 55.46875 148.417969 52.039062 C 151.847656 49.234375 154.5 48.144531 154.5 49.546875 Z M 182.40625 57.183594 L 189.265625 59.367188 L 183.964844 62.019531 C 181.160156 63.421875 176.328125 64.980469 173.207031 65.449219 C 166.191406 66.539062 164.789062 64.355469 167.90625 57.03125 C 169.195312 53.761719 170.058594 53.015625 170.78125 51.828125 C 171.589844 52.136719 178.664062 55.9375 182.40625 57.183594 Z M 251.859375 60.515625 C 252.167969 65.96875 249.914062 73.085938 246.796875 80.726562 C 241.964844 92.886719 237.152344 97.613281 234.347656 92.625 C 232.726562 89.785156 228.960938 84.109375 222.675781 78.949219 C 222.203125 78.5625 221.59375 77.9375 220.246094 77.625 C 218.285156 77.175781 217.742188 77.945312 217.230469 77.554688 C 214.597656 74.03125 214.679688 72.464844 218.109375 72.308594 C 219.980469 72.308594 222.789062 73.710938 224.347656 75.582031 C 225.75 77.296875 228.867188 79.789062 231.050781 80.882812 C 234.792969 82.90625 235.417969 82.753906 238.691406 79.324219 C 241.183594 76.671875 242.597656 72.898438 242.847656 68.121094 C 243.089844 63.421875 241.339844 60.769531 233.390625 59.054688 C 231.050781 58.589844 226.429688 58.648438 227.054688 58.179688 C 228.457031 56.777344 241.964844 53.910156 246.484375 54.066406 C 250.070312 54.378906 251.710938 54.007812 251.859375 60.515625 Z M 153.875 79.167969 C 156.839844 80.570312 160.269531 81.660156 161.515625 81.660156 C 165.570312 81.660156 160.734375 87.429688 154.1875 90.390625 C 150.914062 91.792969 148.261719 93.507812 148.261719 94.132812 C 148.261719 94.757812 151.382812 95.847656 155.28125 96.472656 C 161.515625 97.25 162.296875 97.875 161.515625 100.523438 C 159.957031 105.511719 163.386719 111.75 171.027344 118.296875 C 177.105469 123.285156 177.886719 124.53125 176.015625 126.246094 C 174.457031 127.804688 172.117188 128.117188 166.972656 127.183594 L 159.957031 125.933594 L 160.425781 117.828125 C 160.890625 108.941406 158.554688 106.757812 156.996094 114.554688 C 154.65625 126.402344 156.058594 128.585938 167.128906 130.613281 C 170.246094 131.078125 174.300781 133.261719 176.171875 135.289062 L 179.601562 139.03125 L 175.078125 140.589844 C 172.429688 141.523438 169.777344 141.679688 169.15625 140.902344 C 165.882812 138.09375 158.085938 138.09375 153.71875 140.902344 L 149.199219 143.863281 L 142.960938 138.875 C 134.230469 132.171875 133.140625 130.457031 130.179688 121.101562 C 127.996094 113.617188 125.65625 110.035156 124.097656 111.59375 C 123.785156 111.902344 124.878906 116.425781 126.75 121.882812 C 129.710938 131.078125 133.921875 136.691406 142.808594 143.082031 C 144.523438 144.332031 145.613281 145.578125 145.144531 146.046875 C 144.054688 146.980469 125.1875 156.488281 124.253906 156.488281 C 123.785156 156.488281 120.511719 151.96875 116.925781 146.355469 C 111.3125 137.625 109.753906 136.222656 105.542969 136.066406 C 102.894531 135.910156 98.839844 135.445312 96.503906 134.820312 L 92.449219 133.886719 L 96.191406 124.84375 L 100.085938 115.800781 L 96.65625 110.34375 C 94.632812 106.914062 93.851562 103.953125 94.476562 102.238281 C 95.566406 99.898438 95.878906 100.054688 96.65625 103.175781 C 97.90625 108.007812 100.398438 107.695312 100.710938 102.707031 C 100.710938 100.523438 102.894531 96.78125 105.234375 94.445312 C 107.726562 92.105469 109.285156 91.015625 108.664062 92.105469 C 107.570312 94.289062 109.128906 98.808594 111 98.808594 C 111.78125 98.808594 112.40625 96.472656 112.40625 93.664062 C 112.40625 90.078125 114.121094 86.804688 118.640625 81.660156 C 123.941406 75.582031 124.722656 75.113281 124.878906 78.074219 C 124.878906 80.101562 125.8125 81.660156 126.902344 81.660156 C 128.308594 81.660156 128.773438 80.257812 128.308594 77.140625 L 127.683594 72.464844 L 136.726562 71.996094 C 143.898438 71.683594 146.238281 72.152344 147.171875 74.023438 C 147.953125 75.425781 150.914062 77.761719 153.875 79.167969 Z M 198.039062 127.988281 C 197.914062 128.796875 198.222656 129.851562 198.566406 130.476562 C 200.160156 133.375 204.777344 132.394531 208.445312 128.273438 C 210.625 125.933594 210.625 125.3125 208.757812 124.53125 C 206.5625 123.570312 200.042969 124.457031 199.011719 125.511719 C 198.390625 126.148438 198.160156 127.179688 198.039062 127.988281 Z M 228.554688 87.742188 C 230.269531 89.921875 233.234375 94.132812 235.261719 96.9375 C 235.261719 96.9375 236.570312 98.566406 238.085938 100.046875 C 239.597656 101.527344 241.3125 102.863281 241.3125 102.863281 C 241.3125 102.863281 238.800781 102.984375 233.390625 101.460938 C 220.953125 97.953125 220.136719 96.160156 221.074219 92.417969 C 221.851562 89.457031 222.164062 89.457031 226.21875 93.351562 C 228.398438 95.535156 230.894531 96.78125 231.363281 96.160156 C 233.078125 94.601562 224.660156 86.492188 222.164062 87.429688 C 219.980469 88.207031 218.019531 82.375 218.570312 79.707031 C 218.71875 78.988281 219.445312 78.964844 220.410156 79.382812 C 222.339844 80.214844 225.035156 83.339844 228.554688 87.742188 Z M 214.835938 98.339844 C 214.210938 98.808594 213.277344 98.808594 212.652344 98.339844 C 212.1875 97.71875 212.652344 97.25 213.746094 97.25 C 214.835938 97.25 215.304688 97.71875 214.835938 98.339844 Z M 193.476562 130.765625 C 193.476562 134.820312 191.292969 135.910156 189.578125 133.105469 C 188.175781 130.921875 189.734375 126.871094 191.917969 126.871094 C 192.699219 126.871094 193.476562 128.585938 193.476562 130.765625 Z M 206.449219 127.160156 C 206.449219 128.019531 201.5 130.964844 200.84375 129.132812 C 200.171875 127.25 201.550781 126.78125 203.257812 126.621094 C 205.042969 126.453125 206.449219 126.304688 206.449219 127.160156 Z M 179.445312 130.765625 C 179.445312 132.015625 178.820312 133.105469 178.042969 133.105469 C 176.015625 133.105469 174.613281 130.613281 175.859375 129.363281 C 177.574219 127.648438 179.445312 128.429688 179.445312 130.765625 Z M 179.445312 130.765625 "/>
<path style=" stroke:none;fill-rule:nonzero;fill:rgb(0%,0%,0%);fill-opacity:1;" d="M 201.585938 90.546875 C 203.921875 92.886719 206.417969 94.289062 206.886719 93.664062 C 208.445312 92.105469 202.832031 86.335938 199.871094 86.335938 C 198.152344 86.335938 198.621094 87.429688 201.585938 90.546875 Z M 201.585938 90.546875 "/>
<path style=" stroke:none;fill-rule:nonzero;fill:rgb(0%,0%,0%);fill-opacity:1;" d="M 191.449219 96.472656 C 188.019531 99.746094 187.550781 101.148438 188.800781 103.484375 C 189.734375 105.199219 191.605469 106.605469 192.851562 106.605469 C 196.128906 106.605469 204.859375 97.71875 204.078125 95.222656 C 202.832031 91.636719 195.972656 92.261719 191.449219 96.472656 Z M 201.273438 95.691406 C 201.273438 96.472656 200.179688 97.25 198.933594 97.25 C 197.6875 97.25 195.972656 98.652344 195.035156 100.367188 C 194.101562 102.082031 192.542969 103.019531 191.605469 102.550781 C 190.515625 101.769531 191.292969 100.054688 194.101562 97.71875 C 198.621094 93.976562 201.273438 93.195312 201.273438 95.691406 Z M 201.273438 95.691406 "/>
<path style="fill-rule:evenodd;fill:rgb(100%,81.176471%,67.058824%);fill-opacity:1;stroke-width:1.24;stroke-linecap:butt;stroke-linejoin:miter;stroke:rgb(0%,0%,0%);stroke-opacity:1;stroke-miterlimit:4;" d="M 319.600206 230.140054 C 319.600206 230.140054 317.776218 232.094504 315.684803 233.562056 C 313.593389 235.036465 310.939692 236.023977 310.939692 236.023977 C 310.939692 236.023977 320.800198 248.765619 322.240188 247.112909 C 323.687036 245.467056 322.6379 242.62796 322.020761 238.924792 C 321.396765 235.17362 319.600206 230.140054 319.600206 230.140054 Z M 319.600206 230.140054 " transform="matrix(0.569665,0,0,0.569614,-2.967479,-4.590902)"/>
<path style=" stroke:none;fill-rule:nonzero;fill:rgb(0%,0%,0%);fill-opacity:1;" d="M 67.933594 240.617188 C 60.460938 240.617188 54.628906 238.777344 50.429688 235.089844 C 46.234375 231.402344 44.136719 226.164062 44.136719 219.371094 C 44.136719 214.375 44.90625 209.753906 46.445312 205.507812 C 47.988281 201.265625 50.226562 197.566406 53.160156 194.410156 C 56.070312 191.28125 59.644531 188.832031 63.875 187.0625 C 68.109375 185.292969 72.871094 184.40625 78.15625 184.40625 C 81.335938 184.40625 84.507812 184.789062 87.671875 185.550781 C 90.839844 186.316406 94.070312 187.558594 97.371094 189.28125 L 95.734375 197.503906 L 95.078125 197.503906 C 92.386719 194.980469 89.457031 193.15625 86.289062 192.027344 C 83.125 190.902344 79.722656 190.335938 76.082031 190.335938 C 72.082031 190.335938 68.574219 191.125 65.566406 192.703125 C 62.558594 194.277344 60.023438 196.375 57.960938 198.996094 C 55.949219 201.566406 54.425781 204.5625 53.394531 207.984375 C 52.363281 211.402344 51.851562 214.847656 51.851562 218.316406 C 51.851562 223.53125 53.273438 227.558594 56.125 230.394531 C 58.976562 233.234375 63.191406 234.652344 68.769531 234.652344 C 71.21875 234.652344 73.519531 234.429688 75.664062 233.980469 C 77.8125 233.53125 79.832031 232.953125 81.722656 232.25 L 84.78125 218.390625 L 70.335938 218.390625 L 71.71875 212.3125 L 93.40625 212.3125 L 88.019531 235.5625 C 86.417969 236.214844 84.976562 236.804688 83.6875 237.328125 C 82.402344 237.847656 80.789062 238.386719 78.851562 238.945312 C 77.175781 239.429688 75.449219 239.832031 73.664062 240.144531 C 71.882812 240.460938 69.972656 240.621094 67.933594 240.621094 Z M 67.933594 240.617188 "/>
<path style=" stroke:none;fill-rule:nonzero;fill:rgb(0%,0%,0%);fill-opacity:1;" d="M 123.929688 240.546875 C 117.066406 240.546875 111.679688 238.769531 107.773438 235.21875 C 103.867188 231.664062 101.914062 226.625 101.914062 220.101562 C 101.914062 215.105469 102.667969 210.445312 104.171875 206.128906 C 105.675781 201.8125 107.835938 198.027344 110.648438 194.777344 C 113.4375 191.574219 116.871094 189.046875 120.945312 187.191406 C 125.023438 185.335938 129.570312 184.410156 134.589844 184.40625 C 137.722656 184.410156 140.679688 184.789062 143.46875 185.554688 C 146.257812 186.316406 149.121094 187.523438 152.058594 189.175781 L 150.421875 197.324219 L 149.875 197.324219 C 149.074219 196.523438 148.265625 195.777344 147.453125 195.085938 C 146.640625 194.394531 145.421875 193.636719 143.796875 192.8125 C 142.464844 192.109375 140.875 191.519531 139.03125 191.046875 C 137.1875 190.574219 135.148438 190.339844 132.917969 190.339844 C 129.523438 190.339844 126.40625 191.046875 123.566406 192.46875 C 120.726562 193.886719 118.265625 195.867188 116.179688 198.414062 C 114.140625 200.890625 112.539062 203.898438 111.375 207.4375 C 110.210938 210.980469 109.628906 214.753906 109.628906 218.753906 C 109.628906 223.75 110.929688 227.636719 113.523438 230.414062 C 116.117188 233.191406 119.867188 234.582031 124.765625 234.582031 C 127.070312 234.582031 129.261719 234.320312 131.335938 233.800781 C 133.410156 233.277344 135.296875 232.617188 136.992188 231.816406 C 138.570312 231.0625 139.988281 230.277344 141.25 229.453125 C 142.511719 228.625 143.589844 227.863281 144.488281 227.160156 L 145 227.160156 L 143.289062 235.527344 C 140.742188 236.8125 137.8125 237.972656 134.5 239.003906 C 131.1875 240.03125 127.664062 240.546875 123.929688 240.546875 Z M 123.929688 240.546875 "/>
<path style=" stroke:none;fill-rule:nonzero;fill:rgb(0%,0%,0%);fill-opacity:1;" d="M 176.039062 240.546875 C 169.171875 240.546875 163.789062 238.769531 159.882812 235.21875 C 155.976562 231.664062 154.023438 226.625 154.023438 220.101562 C 154.023438 215.105469 154.777344 210.445312 156.28125 206.128906 C 157.785156 201.8125 159.941406 198.027344 162.757812 194.777344 C 165.546875 191.574219 168.980469 189.046875 173.054688 187.191406 C 177.128906 185.335938 181.679688 184.410156 186.699219 184.40625 C 189.828125 184.410156 192.789062 184.789062 195.578125 185.554688 C 198.367188 186.316406 201.230469 187.523438 204.164062 189.175781 L 202.527344 197.324219 L 201.980469 197.324219 C 201.183594 196.523438 200.375 195.777344 199.5625 195.085938 C 198.75 194.394531 197.53125 193.636719 195.90625 192.8125 C 194.570312 192.109375 192.984375 191.519531 191.140625 191.046875 C 189.296875 190.574219 187.257812 190.339844 185.027344 190.339844 C 181.628906 190.339844 178.511719 191.046875 175.675781 192.46875 C 172.835938 193.886719 170.375 195.867188 168.289062 198.414062 C 166.25 200.890625 164.648438 203.898438 163.484375 207.4375 C 162.320312 210.980469 161.738281 214.753906 161.738281 218.753906 C 161.738281 223.75 163.035156 227.636719 165.632812 230.414062 C 168.226562 233.191406 171.976562 234.582031 176.875 234.582031 C 179.179688 234.582031 181.367188 234.320312 183.441406 233.800781 C 185.515625 233.277344 187.402344 232.617188 189.101562 231.816406 C 190.679688 231.0625 192.097656 230.277344 193.359375 229.453125 C 194.621094 228.625 195.699219 227.863281 196.597656 227.160156 L 197.105469 227.160156 L 195.394531 235.527344 C 192.847656 236.8125 189.921875 237.972656 186.609375 239.003906 C 183.296875 240.03125 179.773438 240.546875 176.039062 240.546875 Z M 176.039062 240.546875 "/>
<path style="fill-rule:evenodd;fill:rgb(100%,100%,100%);fill-opacity:1;stroke-width:1.041419;stroke-linecap:butt;stroke-linejoin:miter;stroke:rgb(0%,0%,0%);stroke-opacity:1;stroke-miterlimit:4;" d="M 355.077576 229.878617 C 354.163513 225.814954 343.159058 233.363796 343.009094 237.770263 C 342.859131 242.169587 353.706482 250.718275 354.541992 246.876008 C 355.377502 243.040882 355.977356 233.90657 355.077576 229.878617 Z M 355.077576 229.878617 " transform="matrix(0.547009,0,0,0.546959,0,0.258026)"/>
</g>
</svg>
