<?xml version="1.0" encoding="UTF-8"?>
<svg xmlns="http://www.w3.org/2000/svg" xmlns:xlink="http://www.w3.org/1999/xlink" width="256pt" height="256pt" viewBox="0 0 256 256" version="1.1">
<defs>
<clipPath id="clip1">
  <path d="M 64 78 L 91 78 L 91 107 L 64 107 Z M 64 78 "/>
</clipPath>
<clipPath id="clip2">
  <path d="M 90.910156 92.667969 L 72.175781 113.476562 L 56.570312 99.425781 L 75.304688 78.617188 Z M 90.910156 92.667969 "/>
</clipPath>
<clipPath id="clip3">
  <path d="M 80 160 L 108 160 L 108 188 L 80 188 Z M 80 160 "/>
</clipPath>
<clipPath id="clip4">
  <path d="M 95.480469 160.632812 L 115.28125 180.433594 L 100.433594 195.28125 L 80.632812 175.480469 Z M 95.480469 160.632812 "/>
</clipPath>
<clipPath id="clip5">
  <path d="M 106.5 155.648438 L 127.5 155.648438 L 127.5 183.648438 L 106.5 183.648438 Z M 106.5 155.648438 "/>
</clipPath>
<clipPath id="clip6">
  <path d="M 71 97 L 99 97 L 99 126 L 71 126 Z M 71 97 "/>
</clipPath>
<clipPath id="clip7">
  <path d="M 98.339844 111.839844 L 79.605469 132.648438 L 64 118.597656 L 82.734375 97.789062 Z M 98.339844 111.839844 "/>
</clipPath>
<clipPath id="clip8">
  <path d="M 165 78 L 192 78 L 192 107 L 165 107 Z M 165 78 "/>
</clipPath>
<clipPath id="clip9">
  <path d="M 180.695312 78.613281 L 199.429688 99.421875 L 183.824219 113.472656 L 165.089844 92.664062 Z M 180.695312 78.613281 "/>
</clipPath>
<clipPath id="clip10">
  <path d="M 148 160 L 176 160 L 176 188 L 148 188 Z M 148 160 "/>
</clipPath>
<clipPath id="clip11">
  <path d="M 175.367188 175.480469 L 155.566406 195.28125 L 140.71875 180.433594 L 160.519531 160.632812 Z M 175.367188 175.480469 "/>
</clipPath>
<clipPath id="clip12">
  <path d="M 128.5 155.648438 L 149.5 155.648438 L 149.5 183.648438 L 128.5 183.648438 Z M 128.5 155.648438 "/>
</clipPath>
</defs>
<g id="surface1">
<path style=" stroke:none;fill-rule:nonzero;fill:rgb(5.882353%,22.745098%,50.196078%);fill-opacity:1;" d="M 146.386719 9.207031 L 246.792969 109.613281 C 256.949219 119.769531 256.949219 136.230469 246.792969 146.386719 L 146.386719 246.792969 C 136.230469 256.949219 119.769531 256.949219 109.613281 246.792969 L 9.207031 146.386719 C -0.949219 136.230469 -0.949219 119.769531 9.207031 109.613281 L 109.613281 9.207031 C 119.769531 -0.949219 136.230469 -0.949219 146.386719 9.207031 Z M 146.386719 9.207031 "/>
<path style="fill-rule:nonzero;fill:rgb(0%,0%,0%);fill-opacity:1;stroke-width:7;stroke-linecap:butt;stroke-linejoin:miter;stroke:rgb(100%,65.098039%,0%);stroke-opacity:1;stroke-miterlimit:4;" d="M -11 -80 L -11.000813 -29.00189 " transform="matrix(0.743145,0.669131,-0.669131,0.743145,71.644145,114.812023)"/>
<g clip-path="url(#clip1)" clip-rule="nonzero">
<g clip-path="url(#clip2)" clip-rule="nonzero">
<path style=" stroke:none;fill-rule:nonzero;fill:rgb(100%,65.098039%,0%);fill-opacity:1;" d="M 90.910156 92.667969 L 75.304688 78.613281 L 64.371094 106.449219 Z M 90.910156 92.667969 "/>
</g>
</g>
<path style="fill-rule:nonzero;fill:rgb(0%,0%,0%);fill-opacity:1;stroke-width:7;stroke-linecap:butt;stroke-linejoin:miter;stroke:rgb(100%,65.098039%,0%);stroke-opacity:1;stroke-miterlimit:4;" d="M -80 0.000000000000028422 L -80 56.999436 " transform="matrix(0.707107,-0.707107,0.707107,0.707107,104.568542,71.431458)"/>
<g clip-path="url(#clip3)" clip-rule="nonzero">
<g clip-path="url(#clip4)" clip-rule="nonzero">
<path style=" stroke:none;fill-rule:nonzero;fill:rgb(100%,65.098039%,0%);fill-opacity:1;" d="M 95.480469 160.632812 L 80.632812 175.480469 L 107.855469 187.855469 Z M 95.480469 160.632812 "/>
</g>
</g>
<path style="fill:none;stroke-width:7;stroke-linecap:butt;stroke-linejoin:miter;stroke:rgb(100%,65.098039%,0%);stroke-opacity:1;stroke-miterlimit:4;" d="M -11 -80 L -11 28 " transform="matrix(1,0,0,1,128,128)"/>
<g clip-path="url(#clip5)" clip-rule="nonzero">
<path style=" stroke:none;fill-rule:nonzero;fill:rgb(100%,65.098039%,0%);fill-opacity:1;" d="M 127.5 155.648438 L 106.5 155.648438 L 117 183.648438 Z M 127.5 155.648438 "/>
</g>
<path style="fill-rule:nonzero;fill:rgb(100%,65.098039%,0%);fill-opacity:1;stroke-width:6;stroke-linecap:butt;stroke-linejoin:miter;stroke:rgb(5.882353%,22.745098%,50.196078%);stroke-opacity:1;stroke-miterlimit:4;" d="M 12 -80 C 12 -67.296875 1.703125 -57 -11 -57 C -23.703125 -57 -34 -67.296875 -34 -80 C -34 -92.703125 -23.703125 -103 -11 -103 C 1.703125 -103 12 -92.703125 12 -80 Z M 12 -80 " transform="matrix(1,0,0,1,128,128)"/>
<path style="fill-rule:nonzero;fill:rgb(100%,65.098039%,0%);fill-opacity:1;stroke-width:6;stroke-linecap:butt;stroke-linejoin:miter;stroke:rgb(5.882353%,22.745098%,50.196078%);stroke-opacity:1;stroke-miterlimit:4;" d="M 23 80 C 23 92.703125 12.703125 103 0 103 C -12.703125 103 -23 92.703125 -23 80 C -23 67.296875 -12.703125 57 0 57 C 12.703125 57 23 67.296875 23 80 Z M 23 80 " transform="matrix(1,0,0,1,128,128)"/>
<path style="fill-rule:nonzero;fill:rgb(100%,65.098039%,0%);fill-opacity:1;stroke-width:6;stroke-linecap:butt;stroke-linejoin:miter;stroke:rgb(5.882353%,22.745098%,50.196078%);stroke-opacity:1;stroke-miterlimit:4;" d="M -57 0 C -57 12.703125 -67.296875 23 -80 23 C -92.703125 23 -103 12.703125 -103 0 C -103 -12.703125 -92.703125 -23 -80 -23 C -67.296875 -23 -57 -12.703125 -57 0 Z M -57 0 " transform="matrix(1,0,0,1,128,128)"/>
<path style="fill-rule:nonzero;fill:rgb(0%,0%,0%);fill-opacity:1;stroke-width:7;stroke-linecap:butt;stroke-linejoin:miter;stroke:rgb(5.882353%,22.745098%,50.196078%);stroke-opacity:1;stroke-miterlimit:4;" d="M 17.998511 -80.000223 L 17.998945 0.00145712 " transform="matrix(0.743145,0.669131,-0.669131,0.743145,78.836089,96.076366)"/>
<path style="fill-rule:nonzero;fill:rgb(0%,0%,0%);fill-opacity:1;stroke-width:7;stroke-linecap:butt;stroke-linejoin:miter;stroke:rgb(100%,100%,100%);stroke-opacity:1;stroke-miterlimit:4;" d="M 12.999636 -79.997543 L 12.999534 -4.999452 " transform="matrix(0.743145,0.669131,-0.669131,0.743145,77.294958,100.091149)"/>
<g clip-path="url(#clip6)" clip-rule="nonzero">
<g clip-path="url(#clip7)" clip-rule="nonzero">
<path style=" stroke:none;fill-rule:nonzero;fill:rgb(100%,100%,100%);fill-opacity:1;" d="M 98.339844 111.839844 L 82.734375 97.789062 L 71.800781 125.621094 Z M 98.339844 111.839844 "/>
</g>
</g>
<path style="fill-rule:nonzero;fill:rgb(0%,0%,0%);fill-opacity:1;stroke-width:7;stroke-linecap:butt;stroke-linejoin:miter;stroke:rgb(100%,100%,100%);stroke-opacity:1;stroke-miterlimit:4;" d="M 11 -80 L 11.000813 -29.00189 " transform="matrix(0.743145,-0.669131,0.669131,0.743145,184.355855,114.812023)"/>
<g clip-path="url(#clip8)" clip-rule="nonzero">
<g clip-path="url(#clip9)" clip-rule="nonzero">
<path style=" stroke:none;fill-rule:nonzero;fill:rgb(100%,100%,100%);fill-opacity:1;" d="M 180.695312 78.613281 L 165.089844 92.667969 L 191.628906 106.449219 Z M 180.695312 78.613281 "/>
</g>
</g>
<path style="fill-rule:nonzero;fill:rgb(0%,0%,0%);fill-opacity:1;stroke-width:7;stroke-linecap:butt;stroke-linejoin:miter;stroke:rgb(100%,100%,100%);stroke-opacity:1;stroke-miterlimit:4;" d="M 80 0.000000000000007105 L 80 56.999436 " transform="matrix(0.707107,0.707107,-0.707107,0.707107,151.431458,71.431458)"/>
<g clip-path="url(#clip10)" clip-rule="nonzero">
<g clip-path="url(#clip11)" clip-rule="nonzero">
<path style=" stroke:none;fill-rule:nonzero;fill:rgb(100%,100%,100%);fill-opacity:1;" d="M 175.367188 175.480469 L 160.519531 160.632812 L 148.144531 187.855469 Z M 175.367188 175.480469 "/>
</g>
</g>
<path style="fill:none;stroke-width:7;stroke-linecap:butt;stroke-linejoin:miter;stroke:rgb(100%,100%,100%);stroke-opacity:1;stroke-miterlimit:4;" d="M 11 -80 L 11 28 " transform="matrix(1,0,0,1,128,128)"/>
<g clip-path="url(#clip12)" clip-rule="nonzero">
<path style=" stroke:none;fill-rule:nonzero;fill:rgb(100%,100%,100%);fill-opacity:1;" d="M 149.5 155.648438 L 128.5 155.648438 L 139 183.648438 Z M 149.5 155.648438 "/>
</g>
<path style="fill-rule:nonzero;fill:rgb(100%,100%,100%);fill-opacity:1;stroke-width:6;stroke-linecap:butt;stroke-linejoin:miter;stroke:rgb(5.882353%,22.745098%,50.196078%);stroke-opacity:1;stroke-miterlimit:4;" d="M 34 -80 C 34 -67.296875 23.703125 -57 11 -57 C -1.703125 -57 -12 -67.296875 -12 -80 C -12 -92.703125 -1.703125 -103 11 -103 C 23.703125 -103 34 -92.703125 34 -80 Z M 34 -80 " transform="matrix(1,0,0,1,128,128)"/>
<path style="fill-rule:nonzero;fill:rgb(100%,100%,100%);fill-opacity:1;stroke-width:6;stroke-linecap:butt;stroke-linejoin:miter;stroke:rgb(5.882353%,22.745098%,50.196078%);stroke-opacity:1;stroke-miterlimit:4;" d="M 103 0 C 103 12.703125 92.703125 23 80 23 C 67.296875 23 57 12.703125 57 0 C 57 -12.703125 67.296875 -23 80 -23 C 92.703125 -23 103 -12.703125 103 0 Z M 103 0 " transform="matrix(1,0,0,1,128,128)"/>
</g>
</svg>
